<svg width="48" height="48" viewBox="0 0 48 48" fill="none" xmlns="http://www.w3.org/2000/svg">
<path d="M33.1241 34.492C33.1241 34.492 28.8834 34.492 28.352 29.7199C27.8205 24.9478 23.5798 24.9478 23.5798 24.9478C23.5798 24.9478 18.7192 24.9478 18.8077 20.1756C18.8962 15.4035 14.0356 15.4035 14.0356 15.4035" stroke="#256506" stroke-width="2"/>
<circle cx="9.32345" cy="9.7836" r="1.72384" stroke="#256506" stroke-width="2"/>
<path fill-rule="evenodd" clip-rule="evenodd" d="M4.24527 16.3556L24.5573 36.6676L21.8511 39.6183L0 17.7672L2.24152 2.24152L17.7672 0L24.6736 6.90641L21.9674 9.85705L16.3556 4.24527L5.77312 5.77312L4.24527 16.3556ZM24.7984 12.6881L42.3431 30.2328L30.2328 42.3431L27.3884 39.4987L24.6822 42.4493L27.4044 45.1716L30.2328 48L33.0613 45.1716L45.1716 33.0613L48 30.2328L45.1716 27.4044L27.5046 9.73748L24.7984 12.6881Z" fill="#256506"/>
</svg>
