<svg width="41" height="39" viewBox="0 0 41 39" fill="none" xmlns="http://www.w3.org/2000/svg">
<path d="M31.1475 16.6902C31.1475 24.7917 24.5223 31.3803 16.3237 31.3803C8.12517 31.3803 1.5 24.7917 1.5 16.6902C1.5 8.5886 8.12517 2 16.3237 2C24.5223 2 31.1475 8.5886 31.1475 16.6902Z" stroke="#0D5020" stroke-width="3"/>
<line y1="-1.5" x2="16.9555" y2="-1.5" transform="matrix(0.700775 0.713382 -0.719114 0.694892 26.1172 26.4042)" stroke="#0D5020" stroke-width="3"/>
<mask id="path-3-inside-1_398_428" fill="white">
<path d="M27.4237 16.0425C27.4237 14.2284 26.9434 12.446 26.031 10.8737C25.1185 9.30133 23.8058 7.99416 22.2242 7.08289C20.6425 6.17162 18.8474 5.68818 17.0183 5.68093C15.1891 5.67368 13.3901 6.14286 11.8012 7.04157L13.7098 10.3611C14.7128 9.79378 15.8483 9.49763 17.0029 9.50221C18.1574 9.50678 19.2905 9.81193 20.2889 10.3871C21.2872 10.9623 22.1158 11.7874 22.6918 12.7799C23.2677 13.7724 23.5709 14.8974 23.5709 16.0425H27.4237Z"/>
</mask>
<path d="M27.4237 16.0425C27.4237 14.2284 26.9434 12.446 26.031 10.8737C25.1185 9.30133 23.8058 7.99416 22.2242 7.08289C20.6425 6.17162 18.8474 5.68818 17.0183 5.68093C15.1891 5.67368 13.3901 6.14286 11.8012 7.04157L13.7098 10.3611C14.7128 9.79378 15.8483 9.49763 17.0029 9.50221C18.1574 9.50678 19.2905 9.81193 20.2889 10.3871C21.2872 10.9623 22.1158 11.7874 22.6918 12.7799C23.2677 13.7724 23.5709 14.8974 23.5709 16.0425H27.4237Z" stroke="#0D5020" stroke-width="2" mask="url(#path-3-inside-1_398_428)"/>
<rect x="24.0059" y="17.8378" width="2.9177" height="2.88564" stroke="#0D5020"/>
</svg>
