<svg width="97" height="26" viewBox="0 0 97 26" fill="none" xmlns="http://www.w3.org/2000/svg">
<path d="M0.883545 25.5L5.91089 0.363281H16.1062C21.239 0.363281 23.3542 2.60742 22.4519 7.0957C21.4792 11.9824 17.3777 14.9648 10.1472 16.043L10.0242 13.3008C15.3328 12.5391 18.3152 10.5176 18.9714 7.23633C19.5222 4.44727 18.2859 3.05273 15.2625 3.05273H8.61792L4.1355 25.5H0.883545ZM44.5652 0.363281L44.0378 3H30.8542L29.1667 11.4375H41.7351L41.2078 14.0742H28.6394L26.8816 22.8633H40.3289L39.8015 25.5H23.1023L28.1296 0.363281H44.5652ZM45.7253 25.5H42.1746L57.8718 0.363281H61.4753L67.1707 25.5H63.7429L62.073 17.5898H53.7585L55.1824 14.9531H61.5105L59.1023 3.5625L45.7253 25.5ZM78.8777 0.363281L73.8503 25.5H70.5984L75.6257 0.363281H78.8777ZM96.2097 0.363281L82.323 12.334L92.3074 25.5H87.9656L79.1238 13.2305L79.5105 11.2617L91.9207 0.363281H96.2097Z" fill="#0D5020"/>
</svg>
